<svg xmlns="http://www.w3.org/2000/svg" width="36" height="36" fill="none" viewBox="0 0 36 36">
    <path fill="#A0A9F3" fill-rule="evenodd" d="M18 36c9.941 0 18-8.059 18-18S27.941 0 18 0 0 8.059 0 18s8.059 18 18 18zm0-3c8.284 0 15-6.716 15-15 0-8.284-6.716-15-15-15C9.716 3 3 9.716 3 18c0 8.284 6.716 15 15 15z" clip-rule="evenodd"/>
    <path fill="#8A94E5" fill-rule="evenodd" d="M18 29c6.075 0 11-4.925 11-11S24.075 7 18 7 7 11.925 7 18s4.925 11 11 11zm0-1.833a9.167 9.167 0 1 0 0-18.334 9.167 9.167 0 0 0 0 18.334z" clip-rule="evenodd"/>
    <path fill="#707ACF" fill-rule="evenodd" d="M18 23a5 5 0 1 0 0-10 5 5 0 0 0 0 10zm0-.833a4.167 4.167 0 1 0 0-8.334 4.167 4.167 0 0 0 0 8.334z" clip-rule="evenodd"/>
</svg>
