<svg xmlns="http://www.w3.org/2000/svg" viewBox="0 0 223.54 192.12"><defs><style>.cls-1{fill:#2d2e83;}.cls-2{fill:#2d2e82;}.cls-3{fill:#2d2d81;}.cls-4{fill:#2d2d80;}.cls-5{fill:#2d2d7f;}.cls-6{fill:#2c2d7e;}.cls-7{fill:#2c2c7d;}.cls-8{fill:#2c2c7c;}.cls-9{fill:#2c2c7b;}.cls-10{fill:#2c2c7a;}.cls-11{fill:#2c2b79;}.cls-12{fill:#2c2b78;}.cls-13{fill:#2c2b77;}.cls-14{fill:#2c2a76;}.cls-15{fill:#2c2a75;}.cls-16{fill:#2b2a74;}.cls-17{fill:#2b2a73;}.cls-18{fill:#2b2972;}.cls-19{fill:#2b2971;}.cls-20{fill:#2b2970;}.cls-21{fill:#2b286f;}.cls-22{fill:#2b286e;}.cls-23{fill:#2b286d;}.cls-24{fill:#2b276c;}.cls-25{fill:#2b276b;}.cls-26{fill:#2a276a;}.cls-27{fill:#2a2769;}.cls-28{fill:#2a2668;}.cls-29{fill:#2a2667;}.cls-30{fill:#2a2666;}.cls-31{fill:#2a2565;}.cls-32{fill:#2a2564;}.cls-33{fill:#2a2563;}.cls-34{fill:#2a2562;}.cls-35{fill:#2a2461;}.cls-36{fill:#292460;}.cls-37{fill:#29245f;}.cls-38{fill:#29245e;}.cls-39{fill:#29235d;}.cls-40{fill:#29235c;}.cls-41{fill:#2a235d;}.cls-42{fill:#2b235d;}.cls-43{fill:#2c235e;}.cls-44{fill:#2d235f;}.cls-45{fill:#2e235f;}.cls-46{fill:#2f2360;}.cls-47{fill:#302360;}.cls-48{fill:#312361;}.cls-49{fill:#322362;}.cls-50{fill:#332362;}.cls-51{fill:#342363;}.cls-52{fill:#352364;}.cls-53{fill:#362364;}.cls-54{fill:#372365;}.cls-55{fill:#382365;}.cls-56{fill:#392366;}.cls-57{fill:#3a2367;}.cls-58{fill:#3b2367;}.cls-59{fill:#3c2368;}.cls-60{fill:#3d2369;}.cls-61{fill:#3e2369;}.cls-62{fill:#3f236a;}.cls-63{fill:#40236a;}.cls-64{fill:#41236b;}.cls-65{fill:#42236c;}.cls-66{fill:#43236c;}.cls-67{fill:#44236d;}.cls-68{fill:#45236e;}.cls-69{fill:#46236e;}.cls-70{fill:#47236f;}.cls-71{fill:#482470;}.cls-72{fill:#492471;}.cls-73{fill:#4a2471;}.cls-74{fill:#4b2472;}.cls-75{fill:#4c2473;}.cls-76{fill:#4d2473;}.cls-77{fill:#4e2474;}.cls-78{fill:#4f2475;}.cls-79{fill:#502475;}.cls-80{fill:#512476;}.cls-81{fill:#522476;}.cls-82{fill:#532477;}.cls-83{fill:#542478;}.cls-84{fill:#552478;}.cls-85{fill:#562479;}.cls-86{fill:#57247a;}.cls-87{fill:#58247a;}.cls-88{fill:#59247b;}.cls-89{fill:#5a247b;}.cls-90{fill:#5b247c;}.cls-91{fill:#5c247d;}.cls-92{fill:#5d247d;}.cls-93{fill:#5e247e;}.cls-94{fill:#5f247f;}.cls-95{fill:#60247f;}.cls-96{fill:#612480;}.cls-97{fill:#622480;}.cls-98{fill:#632481;}.cls-99{fill:#642482;}.cls-100{fill:#652482;}.cls-101{fill:#662483;}.cls-102{fill:#672483;}.cls-103{fill:#682482;}.cls-104{fill:#692382;}.cls-105{fill:#6a2381;}.cls-106{fill:#6b2381;}.cls-107{fill:#6c2380;}.cls-108{fill:#6d2280;}.cls-109{fill:#6e2280;}.cls-110{fill:#6f227f;}.cls-111{fill:#70227f;}.cls-112{fill:#71227e;}.cls-113{fill:#72217e;}.cls-114{fill:#73217d;}.cls-115{fill:#74217d;}.cls-116{fill:#75217c;}.cls-117{fill:#76207c;}.cls-118{fill:#77207c;}.cls-119{fill:#78207b;}.cls-120{fill:#79207b;}.cls-121{fill:#7a207a;}.cls-122{fill:#7b1f7a;}.cls-123{fill:#7c1f79;}.cls-124{fill:#7d1f79;}.cls-125{fill:#7e1f79;}.cls-126{fill:#7f1e78;}.cls-127{fill:#801e78;}.cls-128{fill:#811e77;}.cls-129{fill:#821e77;}.cls-130{fill:#831e76;}.cls-131{fill:#841d76;}.cls-132{fill:#851d76;}.cls-133{fill:#861d75;}.cls-134{fill:#871d75;}.cls-135{fill:#881c74;}.cls-136{fill:#891c74;}.cls-137{fill:#8a1c73;}.cls-138{fill:#8b1c73;}.cls-139{fill:#8c1c73;}.cls-140{fill:#8d1b72;}.cls-141{fill:#8e1b72;}.cls-142{fill:#8f1b71;}.cls-143{fill:#901b71;}.cls-144{fill:#911a70;}.cls-145{fill:#921a70;}.cls-146{fill:#931a6f;}.cls-147{fill:#941a6f;}.cls-148{fill:#951a6f;}.cls-149{fill:#96196e;}.cls-150{fill:#97196e;}.cls-151{fill:#98196d;}.cls-152{fill:#99196d;}.cls-153{fill:#9a186c;}.cls-154{fill:#9b186c;}.cls-155{fill:#9c186c;}.cls-156{fill:#9d186b;}.cls-157{fill:#9e186b;}.cls-158{fill:#9e176a;}.cls-159{fill:#9f176a;}.cls-160{fill:#a01769;}.cls-161{fill:#a11769;}.cls-162{fill:#a21769;}.cls-163{fill:#a31668;}.cls-164{fill:#a41668;}.cls-165{fill:#a51667;}.cls-166{fill:#a61667;}.cls-167{fill:#a71566;}.cls-168{fill:#a81566;}.cls-169{fill:#a91566;}.cls-170{fill:#aa1565;}.cls-171{fill:#ab1565;}.cls-172{fill:#ac1464;}.cls-173{fill:#ad1464;}.cls-174{fill:#ae1463;}.cls-175{fill:#af1463;}.cls-176{fill:#b01362;}.cls-177{fill:#b11362;}.cls-178{fill:#b21362;}.cls-179{fill:#b31361;}.cls-180{fill:#b41361;}.cls-181{fill:#b51260;}.cls-182{fill:#b61260;}.cls-183{fill:#b7125f;}.cls-184{fill:#b8125f;}.cls-185{fill:#b9115f;}.cls-186{fill:#ba115e;}.cls-187{fill:#bb115e;}.cls-188{fill:#bc115d;}.cls-189{fill:#bd115d;}.cls-190{fill:#be105c;}.cls-191{fill:#bf105c;}.cls-192{fill:#c0105c;}.cls-193{fill:#c1105b;}.cls-194{fill:#c20f5b;}.cls-195{fill:#c30f5a;}.cls-196{fill:#c40f5a;}.cls-197{fill:#c50f59;}.cls-198{fill:#c60f59;}.cls-199{fill:#c70e59;}.cls-200{fill:#c80e58;}.cls-201{fill:#c90e58;}.cls-202{fill:#ca0e57;}.cls-203{fill:#cb0d57;}.cls-204{fill:#cc0d56;}.cls-205{fill:#cd0d56;}.cls-206{fill:#ce0d55;}.cls-207{fill:#cf0d55;}.cls-208{fill:#d00c55;}.cls-209{fill:#d10c54;}.cls-210{fill:#d20c54;}.cls-211{fill:#d30c53;}.cls-212{fill:#d40b53;}.cls-213{fill:#d50b52;}.cls-214{fill:#d60b52;}</style></defs><title>leftLogo</title><g id="Design"><circle class="cls-1" cx="24.28" cy="167.84" r="24.28"/><circle class="cls-2" cx="24.28" cy="167.84" r="24.28"/><circle class="cls-3" cx="24.28" cy="167.84" r="24.28"/><circle class="cls-4" cx="24.28" cy="167.84" r="24.28"/><circle class="cls-5" cx="24.28" cy="167.84" r="24.28"/><circle class="cls-6" cx="24.28" cy="167.84" r="24.28"/><circle class="cls-7" cx="24.28" cy="167.84" r="24.28"/><circle class="cls-8" cx="24.28" cy="167.84" r="24.28"/><circle class="cls-9" cx="24.28" cy="167.84" r="24.28"/><circle class="cls-10" cx="24.28" cy="167.84" r="24.28"/><circle class="cls-11" cx="24.28" cy="167.84" r="24.28"/><circle class="cls-12" cx="24.28" cy="167.84" r="24.28"/><circle class="cls-13" cx="24.28" cy="167.84" r="24.28"/><circle class="cls-14" cx="24.28" cy="167.84" r="24.28"/><circle class="cls-15" cx="24.28" cy="167.84" r="24.28"/><circle class="cls-16" cx="24.28" cy="167.84" r="24.28"/><circle class="cls-17" cx="24.28" cy="167.84" r="24.28"/><circle class="cls-18" cx="24.28" cy="167.84" r="24.28"/><circle class="cls-19" cx="24.28" cy="167.84" r="24.28"/><circle class="cls-20" cx="24.28" cy="167.84" r="24.28"/><circle class="cls-20" cx="24.28" cy="167.84" r="24.28"/><circle class="cls-21" cx="24.28" cy="167.84" r="24.28"/><circle class="cls-22" cx="24.28" cy="167.84" r="24.28"/><circle class="cls-23" cx="24.28" cy="167.84" r="24.28"/><circle class="cls-24" cx="24.28" cy="167.84" r="24.28"/><circle class="cls-25" cx="24.28" cy="167.84" r="24.28"/><circle class="cls-26" cx="24.28" cy="167.84" r="24.28"/><circle class="cls-27" cx="24.28" cy="167.84" r="24.28"/><circle class="cls-28" cx="24.28" cy="167.84" r="24.28"/><circle class="cls-29" cx="24.28" cy="167.84" r="24.28"/><circle class="cls-30" cx="24.28" cy="167.84" r="24.28"/><circle class="cls-31" cx="24.28" cy="167.84" r="24.28"/><circle class="cls-32" cx="24.28" cy="167.84" r="24.28"/><circle class="cls-33" cx="24.28" cy="167.84" r="24.28"/><circle class="cls-34" cx="24.28" cy="167.84" r="24.28"/><circle class="cls-35" cx="24.28" cy="167.84" r="24.28"/><circle class="cls-36" cx="24.28" cy="167.84" r="24.28"/><circle class="cls-37" cx="24.28" cy="167.84" r="24.28"/><circle class="cls-38" cx="24.28" cy="167.84" r="24.28"/><circle class="cls-39" cx="24.28" cy="167.84" r="24.28"/><circle class="cls-40" cx="24.28" cy="167.84" r="24.28"/><circle class="cls-41" cx="25.69" cy="165.52" r="24.28"/><circle class="cls-42" cx="27.1" cy="163.21" r="24.28"/><circle class="cls-43" cx="28.52" cy="160.89" r="24.28"/><circle class="cls-44" cx="29.93" cy="158.58" r="24.28"/><circle class="cls-45" cx="31.34" cy="156.26" r="24.28"/><circle class="cls-46" cx="32.75" cy="153.95" r="24.28"/><circle class="cls-47" cx="34.16" cy="151.63" r="24.28"/><circle class="cls-48" cx="35.57" cy="149.31" r="24.28"/><circle class="cls-49" cx="36.98" cy="147" r="24.28"/><circle class="cls-50" cx="38.39" cy="144.68" r="24.28"/><circle class="cls-51" cx="39.81" cy="142.37" r="24.28"/><circle class="cls-52" cx="41.22" cy="140.05" r="24.28"/><circle class="cls-53" cx="42.63" cy="137.74" r="24.28"/><circle class="cls-54" cx="44.04" cy="135.42" r="24.28"/><circle class="cls-55" cx="45.45" cy="133.11" r="24.28"/><circle class="cls-56" cx="46.86" cy="130.79" r="24.28"/><circle class="cls-57" cx="48.27" cy="128.48" r="24.28"/><circle class="cls-58" cx="49.68" cy="126.16" r="24.28"/><circle class="cls-59" cx="51.09" cy="123.84" r="24.28"/><circle class="cls-60" cx="52.51" cy="121.53" r="24.28"/><circle class="cls-61" cx="53.92" cy="119.21" r="24.28"/><circle class="cls-62" cx="55.33" cy="116.9" r="24.28"/><circle class="cls-63" cx="56.74" cy="114.58" r="24.28"/><circle class="cls-64" cx="58.15" cy="112.27" r="24.28"/><circle class="cls-65" cx="59.56" cy="109.95" r="24.28"/><circle class="cls-66" cx="60.97" cy="107.64" r="24.28"/><circle class="cls-67" cx="62.38" cy="105.32" r="24.28"/><circle class="cls-68" cx="63.79" cy="103.01" r="24.28"/><circle class="cls-69" cx="65.21" cy="100.69" r="24.28"/><circle class="cls-70" cx="66.62" cy="98.38" r="24.28"/><circle class="cls-71" cx="68.03" cy="96.06" r="24.28"/><circle class="cls-71" cx="69.44" cy="93.74" r="24.28"/><circle class="cls-72" cx="70.85" cy="91.43" r="24.28"/><circle class="cls-73" cx="72.26" cy="89.11" r="24.28"/><circle class="cls-74" cx="73.67" cy="86.8" r="24.28"/><circle class="cls-75" cx="75.08" cy="84.48" r="24.28"/><circle class="cls-76" cx="76.49" cy="82.17" r="24.28"/><circle class="cls-77" cx="77.91" cy="79.85" r="24.28"/><circle class="cls-78" cx="79.32" cy="77.54" r="24.28"/><circle class="cls-79" cx="80.73" cy="75.22" r="24.28"/><circle class="cls-80" cx="82.14" cy="72.91" r="24.28"/><circle class="cls-81" cx="83.55" cy="70.59" r="24.28"/><circle class="cls-82" cx="84.96" cy="68.28" r="24.28"/><circle class="cls-83" cx="86.37" cy="65.96" r="24.28"/><circle class="cls-84" cx="87.78" cy="63.64" r="24.28"/><circle class="cls-85" cx="89.19" cy="61.33" r="24.28"/><circle class="cls-86" cx="90.61" cy="59.01" r="24.28"/><circle class="cls-87" cx="92.02" cy="56.7" r="24.28"/><circle class="cls-88" cx="93.43" cy="54.38" r="24.28"/><circle class="cls-89" cx="94.84" cy="52.07" r="24.28"/><circle class="cls-90" cx="96.25" cy="49.75" r="24.28"/><circle class="cls-91" cx="97.66" cy="47.44" r="24.28"/><circle class="cls-92" cx="99.07" cy="45.12" r="24.28"/><circle class="cls-93" cx="100.48" cy="42.81" r="24.28"/><circle class="cls-94" cx="101.89" cy="40.49" r="24.28"/><circle class="cls-95" cx="103.31" cy="38.18" r="24.28"/><circle class="cls-96" cx="104.72" cy="35.86" r="24.28"/><circle class="cls-97" cx="106.13" cy="33.54" r="24.28"/><circle class="cls-98" cx="107.54" cy="31.23" r="24.28"/><circle class="cls-99" cx="108.95" cy="28.91" r="24.28"/><circle class="cls-100" cx="110.36" cy="26.6" r="24.28"/><circle class="cls-101" cx="111.77" cy="24.28" r="24.28"/><circle class="cls-102" cx="112.55" cy="25.55" r="24.28"/><circle class="cls-103" cx="113.32" cy="26.82" r="24.28"/><circle class="cls-104" cx="114.09" cy="28.09" r="24.28"/><circle class="cls-105" cx="114.87" cy="29.36" r="24.28"/><circle class="cls-106" cx="115.64" cy="30.63" r="24.28"/><circle class="cls-107" cx="116.42" cy="31.91" r="24.28"/><circle class="cls-108" cx="117.19" cy="33.18" r="24.28"/><circle class="cls-109" cx="117.97" cy="34.45" r="24.28"/><circle class="cls-110" cx="118.74" cy="35.72" r="24.28"/><circle class="cls-111" cx="119.51" cy="36.99" r="24.28"/><circle class="cls-112" cx="120.29" cy="38.26" r="24.28"/><circle class="cls-113" cx="121.06" cy="39.53" r="24.28"/><circle class="cls-114" cx="121.84" cy="40.8" r="24.28"/><circle class="cls-115" cx="122.61" cy="42.07" r="24.28"/><circle class="cls-116" cx="123.39" cy="43.34" r="24.28"/><circle class="cls-117" cx="124.16" cy="44.61" r="24.28"/><circle class="cls-118" cx="124.93" cy="45.88" r="24.28"/><circle class="cls-119" cx="125.71" cy="47.15" r="24.28"/><circle class="cls-120" cx="126.48" cy="48.42" r="24.28"/><circle class="cls-121" cx="127.26" cy="49.69" r="24.28"/><circle class="cls-122" cx="128.03" cy="50.96" r="24.28"/><circle class="cls-123" cx="128.81" cy="52.23" r="24.28"/><circle class="cls-124" cx="129.58" cy="53.5" r="24.28"/><circle class="cls-125" cx="130.35" cy="54.77" r="24.28"/><circle class="cls-126" cx="131.13" cy="56.04" r="24.28"/><circle class="cls-127" cx="131.9" cy="57.31" r="24.28"/><circle class="cls-128" cx="132.68" cy="58.58" r="24.28"/><circle class="cls-129" cx="133.45" cy="59.85" r="24.28"/><circle class="cls-130" cx="134.23" cy="61.12" r="24.28"/><circle class="cls-131" cx="135" cy="62.39" r="24.28"/><circle class="cls-132" cx="135.77" cy="63.66" r="24.28"/><circle class="cls-133" cx="136.55" cy="64.94" r="24.28"/><circle class="cls-134" cx="137.32" cy="66.21" r="24.28"/><circle class="cls-135" cx="138.1" cy="67.48" r="24.28"/><circle class="cls-136" cx="138.87" cy="68.75" r="24.28"/><circle class="cls-137" cx="139.64" cy="70.02" r="24.28"/><circle class="cls-138" cx="140.42" cy="71.29" r="24.28"/><circle class="cls-139" cx="141.19" cy="72.56" r="24.28"/><circle class="cls-140" cx="141.97" cy="73.83" r="24.28"/><circle class="cls-141" cx="142.74" cy="75.1" r="24.28"/><circle class="cls-142" cx="143.52" cy="76.37" r="24.28"/><circle class="cls-143" cx="144.29" cy="77.64" r="24.28"/><circle class="cls-144" cx="145.06" cy="78.91" r="24.28"/><circle class="cls-145" cx="145.84" cy="80.18" r="24.28"/><circle class="cls-146" cx="146.61" cy="81.45" r="24.28"/><circle class="cls-147" cx="147.39" cy="82.72" r="24.28"/><circle class="cls-148" cx="148.16" cy="83.99" r="24.28"/><circle class="cls-149" cx="148.94" cy="85.26" r="24.28"/><circle class="cls-150" cx="149.71" cy="86.53" r="24.28"/><circle class="cls-151" cx="150.48" cy="87.8" r="24.28"/><circle class="cls-152" cx="151.26" cy="89.07" r="24.28"/><circle class="cls-153" cx="152.03" cy="90.34" r="24.28"/><circle class="cls-154" cx="152.81" cy="91.61" r="24.28"/><circle class="cls-155" cx="153.58" cy="92.88" r="24.28"/><circle class="cls-156" cx="154.36" cy="94.15" r="24.28"/><circle class="cls-157" cx="155.13" cy="95.42" r="24.28"/><circle class="cls-158" cx="155.9" cy="96.7" r="24.28"/><circle class="cls-159" cx="156.68" cy="97.97" r="24.28"/><circle class="cls-160" cx="157.45" cy="99.24" r="24.28"/><circle class="cls-161" cx="158.23" cy="100.51" r="24.28"/><circle class="cls-162" cx="159" cy="101.78" r="24.28"/><circle class="cls-163" cx="159.77" cy="103.05" r="24.28"/><circle class="cls-164" cx="160.55" cy="104.32" r="24.28"/><circle class="cls-165" cx="161.32" cy="105.59" r="24.28"/><circle class="cls-166" cx="162.1" cy="106.86" r="24.28"/><circle class="cls-167" cx="162.87" cy="108.13" r="24.28"/><circle class="cls-168" cx="163.65" cy="109.4" r="24.28"/><circle class="cls-169" cx="164.42" cy="110.67" r="24.28"/><circle class="cls-170" cx="165.19" cy="111.94" r="24.28"/><circle class="cls-171" cx="165.97" cy="113.21" r="24.28"/><circle class="cls-172" cx="166.74" cy="114.48" r="24.28"/><circle class="cls-173" cx="167.52" cy="115.75" r="24.28"/><circle class="cls-174" cx="168.29" cy="117.02" r="24.28"/><circle class="cls-175" cx="169.07" cy="118.29" r="24.28"/><circle class="cls-176" cx="169.84" cy="119.56" r="24.28"/><circle class="cls-177" cx="170.61" cy="120.83" r="24.28"/><circle class="cls-178" cx="171.39" cy="122.1" r="24.28"/><circle class="cls-179" cx="172.16" cy="123.37" r="24.28"/><circle class="cls-180" cx="172.94" cy="124.64" r="24.28"/><circle class="cls-181" cx="173.71" cy="125.91" r="24.28"/><circle class="cls-182" cx="174.49" cy="127.18" r="24.28"/><circle class="cls-183" cx="175.26" cy="128.46" r="24.28"/><circle class="cls-184" cx="176.03" cy="129.73" r="24.28"/><circle class="cls-185" cx="176.81" cy="131" r="24.28"/><circle class="cls-186" cx="177.58" cy="132.27" r="24.28"/><circle class="cls-187" cx="178.36" cy="133.54" r="24.28"/><circle class="cls-188" cx="179.13" cy="134.81" r="24.28"/><circle class="cls-189" cx="179.91" cy="136.08" r="24.28"/><circle class="cls-190" cx="180.68" cy="137.35" r="24.28"/><circle class="cls-191" cx="181.45" cy="138.62" r="24.28"/><circle class="cls-192" cx="182.23" cy="139.89" r="24.28"/><circle class="cls-193" cx="183" cy="141.16" r="24.28"/><circle class="cls-194" cx="183.78" cy="142.43" r="24.28"/><circle class="cls-195" cx="184.55" cy="143.7" r="24.28"/><circle class="cls-196" cx="185.32" cy="144.97" r="24.28"/><circle class="cls-197" cx="186.1" cy="146.24" r="24.28"/><circle class="cls-198" cx="186.87" cy="147.51" r="24.28"/><circle class="cls-199" cx="187.65" cy="148.78" r="24.28"/><circle class="cls-200" cx="188.42" cy="150.05" r="24.28"/><circle class="cls-201" cx="189.2" cy="151.32" r="24.28"/><circle class="cls-202" cx="189.97" cy="152.59" r="24.28"/><circle class="cls-203" cx="190.74" cy="153.86" r="24.28"/><circle class="cls-204" cx="191.52" cy="155.13" r="24.28"/><circle class="cls-205" cx="192.29" cy="156.4" r="24.28"/><circle class="cls-206" cx="193.07" cy="157.67" r="24.28"/><circle class="cls-207" cx="193.84" cy="158.94" r="24.28"/><circle class="cls-208" cx="194.62" cy="160.22" r="24.28"/><circle class="cls-209" cx="195.39" cy="161.49" r="24.28"/><circle class="cls-210" cx="196.16" cy="162.76" r="24.28"/><circle class="cls-211" cx="196.94" cy="164.03" r="24.28"/><circle class="cls-212" cx="197.71" cy="165.3" r="24.28"/><circle class="cls-213" cx="198.49" cy="166.57" r="24.28"/><circle class="cls-214" cx="199.26" cy="167.84" r="24.28"/></g></svg>