<svg xmlns="http://www.w3.org/2000/svg" viewBox="0 0 379 285.26"><defs><style>.cls-1{font-size:36.6px;fill:#fcfcfc;font-family:Arial-BoldMT, Arial;font-weight:700;}.cls-2{letter-spacing:-0.07em;}.cls-3{letter-spacing:0em;}.cls-4{letter-spacing:-0.02em;}.cls-5{fill:#2d2e83;}.cls-6{fill:#2d2e82;}.cls-7{fill:#2d2d81;}.cls-8{fill:#2d2d80;}.cls-9{fill:#2d2d7f;}.cls-10{fill:#2c2d7e;}.cls-11{fill:#2c2c7d;}.cls-12{fill:#2c2c7c;}.cls-13{fill:#2c2c7b;}.cls-14{fill:#2c2c7a;}.cls-15{fill:#2c2b79;}.cls-16{fill:#2c2b78;}.cls-17{fill:#2c2b77;}.cls-18{fill:#2c2a76;}.cls-19{fill:#2c2a75;}.cls-20{fill:#2b2a74;}.cls-21{fill:#2b2a73;}.cls-22{fill:#2b2972;}.cls-23{fill:#2b2971;}.cls-24{fill:#2b2970;}.cls-25{fill:#2b286f;}.cls-26{fill:#2b286e;}.cls-27{fill:#2b286d;}.cls-28{fill:#2b276c;}.cls-29{fill:#2b276b;}.cls-30{fill:#2a276a;}.cls-31{fill:#2a2769;}.cls-32{fill:#2a2668;}.cls-33{fill:#2a2667;}.cls-34{fill:#2a2666;}.cls-35{fill:#2a2565;}.cls-36{fill:#2a2564;}.cls-37{fill:#2a2563;}.cls-38{fill:#2a2562;}.cls-39{fill:#2a2461;}.cls-40{fill:#292460;}.cls-41{fill:#29245f;}.cls-42{fill:#29245e;}.cls-43{fill:#29235d;}.cls-44{fill:#29235c;}.cls-45{fill:#2a235d;}.cls-46{fill:#2b235d;}.cls-47{fill:#2c235e;}.cls-48{fill:#2d235f;}.cls-49{fill:#2e235f;}.cls-50{fill:#2f2360;}.cls-51{fill:#302360;}.cls-52{fill:#312361;}.cls-53{fill:#322362;}.cls-54{fill:#332362;}.cls-55{fill:#342363;}.cls-56{fill:#352364;}.cls-57{fill:#362364;}.cls-58{fill:#372365;}.cls-59{fill:#382365;}.cls-60{fill:#392366;}.cls-61{fill:#3a2367;}.cls-62{fill:#3b2367;}.cls-63{fill:#3c2368;}.cls-64{fill:#3d2369;}.cls-65{fill:#3e2369;}.cls-66{fill:#3f236a;}.cls-67{fill:#40236a;}.cls-68{fill:#41236b;}.cls-69{fill:#42236c;}.cls-70{fill:#43236c;}.cls-71{fill:#44236d;}.cls-72{fill:#45236e;}.cls-73{fill:#46236e;}.cls-74{fill:#47236f;}.cls-75{fill:#482470;}.cls-76{fill:#492471;}.cls-77{fill:#4a2471;}.cls-78{fill:#4b2472;}.cls-79{fill:#4c2473;}.cls-80{fill:#4d2473;}.cls-81{fill:#4e2474;}.cls-82{fill:#4f2475;}.cls-83{fill:#502475;}.cls-84{fill:#512476;}.cls-85{fill:#522476;}.cls-86{fill:#532477;}.cls-87{fill:#542478;}.cls-88{fill:#552478;}.cls-89{fill:#562479;}.cls-90{fill:#57247a;}.cls-91{fill:#58247a;}.cls-92{fill:#59247b;}.cls-93{fill:#5a247b;}.cls-94{fill:#5b247c;}.cls-95{fill:#5c247d;}.cls-96{fill:#5d247d;}.cls-97{fill:#5e247e;}.cls-98{fill:#5f247f;}.cls-99{fill:#60247f;}.cls-100{fill:#612480;}.cls-101{fill:#622480;}.cls-102{fill:#632481;}.cls-103{fill:#642482;}.cls-104{fill:#652482;}.cls-105{fill:#662483;}.cls-106{fill:#672483;}.cls-107{fill:#682482;}.cls-108{fill:#692382;}.cls-109{fill:#6a2381;}.cls-110{fill:#6b2381;}.cls-111{fill:#6c2380;}.cls-112{fill:#6d2280;}.cls-113{fill:#6e2280;}.cls-114{fill:#6f227f;}.cls-115{fill:#70227f;}.cls-116{fill:#71227e;}.cls-117{fill:#72217e;}.cls-118{fill:#73217d;}.cls-119{fill:#74217d;}.cls-120{fill:#75217c;}.cls-121{fill:#76207c;}.cls-122{fill:#77207c;}.cls-123{fill:#78207b;}.cls-124{fill:#79207b;}.cls-125{fill:#7a207a;}.cls-126{fill:#7b1f7a;}.cls-127{fill:#7c1f79;}.cls-128{fill:#7d1f79;}.cls-129{fill:#7e1f79;}.cls-130{fill:#7f1e78;}.cls-131{fill:#801e78;}.cls-132{fill:#811e77;}.cls-133{fill:#821e77;}.cls-134{fill:#831e76;}.cls-135{fill:#841d76;}.cls-136{fill:#851d76;}.cls-137{fill:#861d75;}.cls-138{fill:#871d75;}.cls-139{fill:#881c74;}.cls-140{fill:#891c74;}.cls-141{fill:#8a1c73;}.cls-142{fill:#8b1c73;}.cls-143{fill:#8c1c73;}.cls-144{fill:#8d1b72;}.cls-145{fill:#8e1b72;}.cls-146{fill:#8f1b71;}.cls-147{fill:#901b71;}.cls-148{fill:#911a70;}.cls-149{fill:#921a70;}.cls-150{fill:#931a6f;}.cls-151{fill:#941a6f;}.cls-152{fill:#951a6f;}.cls-153{fill:#96196e;}.cls-154{fill:#97196e;}.cls-155{fill:#98196d;}.cls-156{fill:#99196d;}.cls-157{fill:#9a186c;}.cls-158{fill:#9b186c;}.cls-159{fill:#9c186c;}.cls-160{fill:#9d186b;}.cls-161{fill:#9e186b;}.cls-162{fill:#9e176a;}.cls-163{fill:#9f176a;}.cls-164{fill:#a01769;}.cls-165{fill:#a11769;}.cls-166{fill:#a21769;}.cls-167{fill:#a31668;}.cls-168{fill:#a41668;}.cls-169{fill:#a51667;}.cls-170{fill:#a61667;}.cls-171{fill:#a71566;}.cls-172{fill:#a81566;}.cls-173{fill:#a91566;}.cls-174{fill:#aa1565;}.cls-175{fill:#ab1565;}.cls-176{fill:#ac1464;}.cls-177{fill:#ad1464;}.cls-178{fill:#ae1463;}.cls-179{fill:#af1463;}.cls-180{fill:#b01362;}.cls-181{fill:#b11362;}.cls-182{fill:#b21362;}.cls-183{fill:#b31361;}.cls-184{fill:#b41361;}.cls-185{fill:#b51260;}.cls-186{fill:#b61260;}.cls-187{fill:#b7125f;}.cls-188{fill:#b8125f;}.cls-189{fill:#b9115f;}.cls-190{fill:#ba115e;}.cls-191{fill:#bb115e;}.cls-192{fill:#bc115d;}.cls-193{fill:#bd115d;}.cls-194{fill:#be105c;}.cls-195{fill:#bf105c;}.cls-196{fill:#c0105c;}.cls-197{fill:#c1105b;}.cls-198{fill:#c20f5b;}.cls-199{fill:#c30f5a;}.cls-200{fill:#c40f5a;}.cls-201{fill:#c50f59;}.cls-202{fill:#c60f59;}.cls-203{fill:#c70e59;}.cls-204{fill:#c80e58;}.cls-205{fill:#c90e58;}.cls-206{fill:#ca0e57;}.cls-207{fill:#cb0d57;}.cls-208{fill:#cc0d56;}.cls-209{fill:#cd0d56;}.cls-210{fill:#ce0d55;}.cls-211{fill:#cf0d55;}.cls-212{fill:#d00c55;}.cls-213{fill:#d10c54;}.cls-214{fill:#d20c54;}.cls-215{fill:#d30c53;}.cls-216{fill:#d40b53;}.cls-217{fill:#d50b52;}.cls-218{fill:#d60b52;}</style></defs><title>logoEqvola</title><g id="Design"><text class="cls-1" transform="translate(39.67 271.48)">COM<tspan class="cls-2" x="85.4" y="0">P</tspan><tspan class="cls-3" x="107.1" y="0">AN</tspan><tspan class="cls-4" x="159.97" y="0">Y</tspan><tspan x="183.72" y="0" xml:space="preserve"> NAME</tspan></text><circle class="cls-5" cx="24.28" cy="177.47" r="24.28"/><circle class="cls-6" cx="24.28" cy="177.47" r="24.28"/><circle class="cls-7" cx="24.28" cy="177.47" r="24.28"/><circle class="cls-8" cx="24.28" cy="177.47" r="24.28"/><circle class="cls-9" cx="24.28" cy="177.47" r="24.28"/><circle class="cls-10" cx="24.28" cy="177.47" r="24.28"/><circle class="cls-11" cx="24.28" cy="177.47" r="24.28"/><circle class="cls-12" cx="24.28" cy="177.47" r="24.28"/><circle class="cls-13" cx="24.28" cy="177.47" r="24.28"/><circle class="cls-14" cx="24.28" cy="177.47" r="24.28"/><circle class="cls-15" cx="24.28" cy="177.47" r="24.28"/><circle class="cls-16" cx="24.28" cy="177.47" r="24.28"/><circle class="cls-17" cx="24.28" cy="177.47" r="24.28"/><circle class="cls-18" cx="24.28" cy="177.47" r="24.28"/><circle class="cls-19" cx="24.28" cy="177.47" r="24.28"/><circle class="cls-20" cx="24.28" cy="177.47" r="24.28"/><circle class="cls-21" cx="24.28" cy="177.47" r="24.28"/><circle class="cls-22" cx="24.28" cy="177.47" r="24.28"/><circle class="cls-23" cx="24.28" cy="177.47" r="24.28"/><circle class="cls-24" cx="24.28" cy="177.47" r="24.28"/><circle class="cls-24" cx="24.28" cy="177.47" r="24.28"/><circle class="cls-25" cx="24.28" cy="177.47" r="24.28"/><circle class="cls-26" cx="24.28" cy="177.47" r="24.28"/><circle class="cls-27" cx="24.28" cy="177.47" r="24.28"/><circle class="cls-28" cx="24.28" cy="177.47" r="24.28"/><circle class="cls-29" cx="24.28" cy="177.47" r="24.28"/><circle class="cls-30" cx="24.28" cy="177.47" r="24.28"/><circle class="cls-31" cx="24.28" cy="177.47" r="24.28"/><circle class="cls-32" cx="24.28" cy="177.47" r="24.28"/><circle class="cls-33" cx="24.28" cy="177.47" r="24.28"/><circle class="cls-34" cx="24.28" cy="177.47" r="24.28"/><circle class="cls-35" cx="24.28" cy="177.47" r="24.28"/><circle class="cls-36" cx="24.28" cy="177.47" r="24.28"/><circle class="cls-37" cx="24.28" cy="177.47" r="24.28"/><circle class="cls-38" cx="24.28" cy="177.47" r="24.28"/><circle class="cls-39" cx="24.28" cy="177.47" r="24.28"/><circle class="cls-40" cx="24.28" cy="177.47" r="24.28"/><circle class="cls-41" cx="24.28" cy="177.47" r="24.28"/><circle class="cls-42" cx="24.28" cy="177.47" r="24.28"/><circle class="cls-43" cx="24.28" cy="177.47" r="24.28"/><circle class="cls-44" cx="24.28" cy="177.47" r="24.28"/><circle class="cls-45" cx="25.69" cy="175.15" r="24.28"/><circle class="cls-46" cx="27.1" cy="172.84" r="24.28"/><circle class="cls-47" cx="28.52" cy="170.52" r="24.28"/><circle class="cls-48" cx="29.93" cy="168.21" r="24.28"/><circle class="cls-49" cx="31.34" cy="165.89" r="24.28"/><circle class="cls-50" cx="32.75" cy="163.58" r="24.28"/><circle class="cls-51" cx="34.16" cy="161.26" r="24.28"/><circle class="cls-52" cx="35.57" cy="158.94" r="24.28"/><circle class="cls-53" cx="36.98" cy="156.63" r="24.28"/><circle class="cls-54" cx="38.39" cy="154.31" r="24.28"/><circle class="cls-55" cx="39.81" cy="152" r="24.28"/><circle class="cls-56" cx="41.22" cy="149.68" r="24.28"/><circle class="cls-57" cx="42.63" cy="147.37" r="24.28"/><circle class="cls-58" cx="44.04" cy="145.05" r="24.28"/><circle class="cls-59" cx="45.45" cy="142.74" r="24.28"/><circle class="cls-60" cx="46.86" cy="140.42" r="24.28"/><circle class="cls-61" cx="48.27" cy="138.11" r="24.28"/><circle class="cls-62" cx="49.68" cy="135.79" r="24.28"/><circle class="cls-63" cx="51.09" cy="133.47" r="24.28"/><circle class="cls-64" cx="52.51" cy="131.16" r="24.28"/><circle class="cls-65" cx="53.92" cy="128.84" r="24.28"/><circle class="cls-66" cx="55.33" cy="126.53" r="24.28"/><circle class="cls-67" cx="56.74" cy="124.21" r="24.28"/><circle class="cls-68" cx="58.15" cy="121.9" r="24.28"/><circle class="cls-69" cx="59.56" cy="119.58" r="24.28"/><circle class="cls-70" cx="60.97" cy="117.27" r="24.28"/><circle class="cls-71" cx="62.38" cy="114.95" r="24.28"/><circle class="cls-72" cx="63.79" cy="112.64" r="24.28"/><circle class="cls-73" cx="65.21" cy="110.32" r="24.28"/><circle class="cls-74" cx="66.62" cy="108.01" r="24.28"/><circle class="cls-75" cx="68.03" cy="105.69" r="24.28"/><circle class="cls-75" cx="69.44" cy="103.37" r="24.28"/><circle class="cls-76" cx="70.85" cy="101.06" r="24.28"/><circle class="cls-77" cx="72.26" cy="98.74" r="24.28"/><circle class="cls-78" cx="73.67" cy="96.43" r="24.28"/><circle class="cls-79" cx="75.08" cy="94.11" r="24.28"/><circle class="cls-80" cx="76.49" cy="91.8" r="24.28"/><circle class="cls-81" cx="77.91" cy="89.48" r="24.28"/><circle class="cls-82" cx="79.32" cy="87.17" r="24.28"/><circle class="cls-83" cx="80.73" cy="84.85" r="24.28"/><circle class="cls-84" cx="82.14" cy="82.54" r="24.28"/><circle class="cls-85" cx="83.55" cy="80.22" r="24.28"/><circle class="cls-86" cx="84.96" cy="77.91" r="24.28"/><circle class="cls-87" cx="86.37" cy="75.59" r="24.28"/><circle class="cls-88" cx="87.78" cy="73.27" r="24.28"/><circle class="cls-89" cx="89.19" cy="70.96" r="24.28"/><circle class="cls-90" cx="90.61" cy="68.64" r="24.28"/><circle class="cls-91" cx="92.02" cy="66.33" r="24.28"/><circle class="cls-92" cx="93.43" cy="64.01" r="24.28"/><circle class="cls-93" cx="94.84" cy="61.7" r="24.28"/><circle class="cls-94" cx="96.25" cy="59.38" r="24.28"/><circle class="cls-95" cx="97.66" cy="57.07" r="24.28"/><circle class="cls-96" cx="99.07" cy="54.75" r="24.28"/><circle class="cls-97" cx="100.48" cy="52.44" r="24.28"/><circle class="cls-98" cx="101.89" cy="50.12" r="24.28"/><circle class="cls-99" cx="103.31" cy="47.81" r="24.28"/><circle class="cls-100" cx="104.72" cy="45.49" r="24.28"/><circle class="cls-101" cx="106.13" cy="43.17" r="24.28"/><circle class="cls-102" cx="107.54" cy="40.86" r="24.28"/><circle class="cls-103" cx="108.95" cy="38.54" r="24.28"/><circle class="cls-104" cx="110.36" cy="36.23" r="24.28"/><circle class="cls-105" cx="111.77" cy="33.91" r="24.28"/><circle class="cls-106" cx="112.55" cy="35.18" r="24.28"/><circle class="cls-107" cx="113.32" cy="36.45" r="24.28"/><circle class="cls-108" cx="114.09" cy="37.72" r="24.28"/><circle class="cls-109" cx="114.87" cy="38.99" r="24.28"/><circle class="cls-110" cx="115.64" cy="40.26" r="24.28"/><circle class="cls-111" cx="116.42" cy="41.54" r="24.28"/><circle class="cls-112" cx="117.19" cy="42.81" r="24.28"/><circle class="cls-113" cx="117.97" cy="44.08" r="24.28"/><circle class="cls-114" cx="118.74" cy="45.35" r="24.28"/><circle class="cls-115" cx="119.51" cy="46.62" r="24.28"/><circle class="cls-116" cx="120.29" cy="47.89" r="24.28"/><circle class="cls-117" cx="121.06" cy="49.16" r="24.28"/><circle class="cls-118" cx="121.84" cy="50.43" r="24.28"/><circle class="cls-119" cx="122.61" cy="51.7" r="24.28"/><circle class="cls-120" cx="123.39" cy="52.97" r="24.28"/><circle class="cls-121" cx="124.16" cy="54.24" r="24.28"/><circle class="cls-122" cx="124.93" cy="55.51" r="24.28"/><circle class="cls-123" cx="125.71" cy="56.78" r="24.28"/><circle class="cls-124" cx="126.48" cy="58.05" r="24.28"/><circle class="cls-125" cx="127.26" cy="59.32" r="24.28"/><circle class="cls-126" cx="128.03" cy="60.59" r="24.28"/><circle class="cls-127" cx="128.81" cy="61.86" r="24.28"/><circle class="cls-128" cx="129.58" cy="63.13" r="24.28"/><circle class="cls-129" cx="130.35" cy="64.4" r="24.28"/><circle class="cls-130" cx="131.13" cy="65.67" r="24.28"/><circle class="cls-131" cx="131.9" cy="66.94" r="24.28"/><circle class="cls-132" cx="132.68" cy="68.21" r="24.28"/><circle class="cls-133" cx="133.45" cy="69.48" r="24.28"/><circle class="cls-134" cx="134.23" cy="70.75" r="24.28"/><circle class="cls-135" cx="135" cy="72.02" r="24.28"/><circle class="cls-136" cx="135.77" cy="73.3" r="24.28"/><circle class="cls-137" cx="136.55" cy="74.57" r="24.28"/><circle class="cls-138" cx="137.32" cy="75.84" r="24.28"/><circle class="cls-139" cx="138.1" cy="77.11" r="24.28"/><circle class="cls-140" cx="138.87" cy="78.38" r="24.28"/><circle class="cls-141" cx="139.64" cy="79.65" r="24.28"/><circle class="cls-142" cx="140.42" cy="80.92" r="24.28"/><circle class="cls-143" cx="141.19" cy="82.19" r="24.28"/><circle class="cls-144" cx="141.97" cy="83.46" r="24.28"/><circle class="cls-145" cx="142.74" cy="84.73" r="24.28"/><circle class="cls-146" cx="143.52" cy="86" r="24.28"/><circle class="cls-147" cx="144.29" cy="87.27" r="24.28"/><circle class="cls-148" cx="145.06" cy="88.54" r="24.28"/><circle class="cls-149" cx="145.84" cy="89.81" r="24.28"/><circle class="cls-150" cx="146.61" cy="91.08" r="24.28"/><circle class="cls-151" cx="147.39" cy="92.35" r="24.28"/><circle class="cls-152" cx="148.16" cy="93.62" r="24.28"/><circle class="cls-153" cx="148.94" cy="94.89" r="24.28"/><circle class="cls-154" cx="149.71" cy="96.16" r="24.28"/><circle class="cls-155" cx="150.48" cy="97.43" r="24.28"/><circle class="cls-156" cx="151.26" cy="98.7" r="24.28"/><circle class="cls-157" cx="152.03" cy="99.97" r="24.28"/><circle class="cls-158" cx="152.81" cy="101.24" r="24.28"/><circle class="cls-159" cx="153.58" cy="102.51" r="24.28"/><circle class="cls-160" cx="154.36" cy="103.78" r="24.28"/><circle class="cls-161" cx="155.13" cy="105.05" r="24.28"/><circle class="cls-162" cx="155.9" cy="106.33" r="24.28"/><circle class="cls-163" cx="156.68" cy="107.6" r="24.28"/><circle class="cls-164" cx="157.45" cy="108.87" r="24.28"/><circle class="cls-165" cx="158.23" cy="110.14" r="24.28"/><circle class="cls-166" cx="159" cy="111.41" r="24.28"/><circle class="cls-167" cx="159.77" cy="112.68" r="24.28"/><circle class="cls-168" cx="160.55" cy="113.95" r="24.28"/><circle class="cls-169" cx="161.32" cy="115.22" r="24.28"/><circle class="cls-170" cx="162.1" cy="116.49" r="24.28"/><circle class="cls-171" cx="162.87" cy="117.76" r="24.28"/><circle class="cls-172" cx="163.65" cy="119.03" r="24.28"/><circle class="cls-173" cx="164.42" cy="120.3" r="24.28"/><circle class="cls-174" cx="165.19" cy="121.57" r="24.28"/><circle class="cls-175" cx="165.97" cy="122.84" r="24.28"/><circle class="cls-176" cx="166.74" cy="124.11" r="24.28"/><circle class="cls-177" cx="167.52" cy="125.38" r="24.28"/><circle class="cls-178" cx="168.29" cy="126.65" r="24.28"/><circle class="cls-179" cx="169.07" cy="127.92" r="24.28"/><circle class="cls-180" cx="169.84" cy="129.19" r="24.28"/><circle class="cls-181" cx="170.61" cy="130.46" r="24.28"/><circle class="cls-182" cx="171.39" cy="131.73" r="24.28"/><circle class="cls-183" cx="172.16" cy="133" r="24.28"/><circle class="cls-184" cx="172.94" cy="134.27" r="24.28"/><circle class="cls-185" cx="173.71" cy="135.54" r="24.28"/><circle class="cls-186" cx="174.49" cy="136.81" r="24.28"/><circle class="cls-187" cx="175.26" cy="138.09" r="24.28"/><circle class="cls-188" cx="176.03" cy="139.36" r="24.28"/><circle class="cls-189" cx="176.81" cy="140.63" r="24.28"/><circle class="cls-190" cx="177.58" cy="141.9" r="24.28"/><circle class="cls-191" cx="178.36" cy="143.17" r="24.28"/><circle class="cls-192" cx="179.13" cy="144.44" r="24.28"/><circle class="cls-193" cx="179.91" cy="145.71" r="24.28"/><circle class="cls-194" cx="180.68" cy="146.98" r="24.28"/><circle class="cls-195" cx="181.45" cy="148.25" r="24.28"/><circle class="cls-196" cx="182.23" cy="149.52" r="24.28"/><circle class="cls-197" cx="183" cy="150.79" r="24.28"/><circle class="cls-198" cx="183.78" cy="152.06" r="24.28"/><circle class="cls-199" cx="184.55" cy="153.33" r="24.28"/><circle class="cls-200" cx="185.32" cy="154.6" r="24.28"/><circle class="cls-201" cx="186.1" cy="155.87" r="24.28"/><circle class="cls-202" cx="186.87" cy="157.14" r="24.28"/><circle class="cls-203" cx="187.65" cy="158.41" r="24.28"/><circle class="cls-204" cx="188.42" cy="159.68" r="24.28"/><circle class="cls-205" cx="189.2" cy="160.95" r="24.28"/><circle class="cls-206" cx="189.97" cy="162.22" r="24.28"/><circle class="cls-207" cx="190.74" cy="163.49" r="24.28"/><circle class="cls-208" cx="191.52" cy="164.76" r="24.28"/><circle class="cls-209" cx="192.29" cy="166.03" r="24.28"/><circle class="cls-210" cx="193.07" cy="167.3" r="24.28"/><circle class="cls-211" cx="193.84" cy="168.57" r="24.28"/><circle class="cls-212" cx="194.62" cy="169.85" r="24.28"/><circle class="cls-213" cx="195.39" cy="171.12" r="24.28"/><circle class="cls-214" cx="196.16" cy="172.39" r="24.28"/><circle class="cls-215" cx="196.94" cy="173.66" r="24.28"/><circle class="cls-216" cx="197.71" cy="174.93" r="24.28"/><circle class="cls-217" cx="198.49" cy="176.2" r="24.28"/><circle class="cls-218" cx="199.26" cy="177.47" r="24.28"/><circle class="cls-5" cx="354.72" cy="24.28" r="24.28"/><circle class="cls-6" cx="354.72" cy="24.28" r="24.28"/><circle class="cls-7" cx="354.72" cy="24.28" r="24.28"/><circle class="cls-8" cx="354.72" cy="24.28" r="24.28"/><circle class="cls-9" cx="354.72" cy="24.28" r="24.28"/><circle class="cls-10" cx="354.72" cy="24.28" r="24.28"/><circle class="cls-11" cx="354.72" cy="24.28" r="24.28"/><circle class="cls-12" cx="354.72" cy="24.28" r="24.28"/><circle class="cls-13" cx="354.72" cy="24.28" r="24.28"/><circle class="cls-14" cx="354.72" cy="24.28" r="24.28"/><circle class="cls-15" cx="354.72" cy="24.28" r="24.28"/><circle class="cls-16" cx="354.72" cy="24.28" r="24.28"/><circle class="cls-17" cx="354.72" cy="24.28" r="24.28"/><circle class="cls-18" cx="354.72" cy="24.28" r="24.28"/><circle class="cls-19" cx="354.72" cy="24.28" r="24.28"/><circle class="cls-20" cx="354.72" cy="24.28" r="24.28"/><circle class="cls-21" cx="354.72" cy="24.28" r="24.28"/><circle class="cls-22" cx="354.72" cy="24.28" r="24.28"/><circle class="cls-23" cx="354.72" cy="24.28" r="24.28"/><circle class="cls-24" cx="354.72" cy="24.28" r="24.28"/><circle class="cls-24" cx="354.72" cy="24.28" r="24.28"/><circle class="cls-25" cx="354.72" cy="24.28" r="24.28"/><circle class="cls-26" cx="354.72" cy="24.28" r="24.28"/><circle class="cls-27" cx="354.72" cy="24.28" r="24.28"/><circle class="cls-28" cx="354.72" cy="24.28" r="24.28"/><circle class="cls-29" cx="354.72" cy="24.28" r="24.28"/><circle class="cls-30" cx="354.72" cy="24.28" r="24.28"/><circle class="cls-31" cx="354.72" cy="24.28" r="24.28"/><circle class="cls-32" cx="354.72" cy="24.28" r="24.28"/><circle class="cls-33" cx="354.72" cy="24.28" r="24.28"/><circle class="cls-34" cx="354.72" cy="24.28" r="24.28"/><circle class="cls-35" cx="354.72" cy="24.28" r="24.28"/><circle class="cls-36" cx="354.72" cy="24.28" r="24.28"/><circle class="cls-37" cx="354.72" cy="24.28" r="24.28"/><circle class="cls-38" cx="354.72" cy="24.28" r="24.28"/><circle class="cls-39" cx="354.72" cy="24.28" r="24.28"/><circle class="cls-40" cx="354.72" cy="24.28" r="24.28"/><circle class="cls-41" cx="354.72" cy="24.28" r="24.28"/><circle class="cls-42" cx="354.72" cy="24.28" r="24.28"/><circle class="cls-43" cx="354.72" cy="24.28" r="24.28"/><circle class="cls-44" cx="354.72" cy="24.28" r="24.28"/><circle class="cls-45" cx="353.31" cy="26.6" r="24.28"/><circle class="cls-46" cx="351.9" cy="28.91" r="24.28"/><circle class="cls-47" cx="350.48" cy="31.23" r="24.28"/><circle class="cls-48" cx="349.07" cy="33.54" r="24.28"/><circle class="cls-49" cx="347.66" cy="35.86" r="24.28"/><circle class="cls-50" cx="346.25" cy="38.18" r="24.28"/><circle class="cls-51" cx="344.84" cy="40.49" r="24.28"/><circle class="cls-52" cx="343.43" cy="42.81" r="24.28"/><circle class="cls-53" cx="342.02" cy="45.12" r="24.28"/><circle class="cls-54" cx="340.61" cy="47.44" r="24.28"/><circle class="cls-55" cx="339.19" cy="49.75" r="24.28"/><circle class="cls-56" cx="337.78" cy="52.07" r="24.28"/><circle class="cls-57" cx="336.37" cy="54.38" r="24.28"/><circle class="cls-58" cx="334.96" cy="56.7" r="24.28"/><circle class="cls-59" cx="333.55" cy="59.01" r="24.28"/><circle class="cls-60" cx="332.14" cy="61.33" r="24.28"/><circle class="cls-61" cx="330.73" cy="63.64" r="24.28"/><circle class="cls-62" cx="329.32" cy="65.96" r="24.28"/><circle class="cls-63" cx="327.91" cy="68.28" r="24.28"/><circle class="cls-64" cx="326.49" cy="70.59" r="24.28"/><circle class="cls-65" cx="325.08" cy="72.91" r="24.28"/><circle class="cls-66" cx="323.67" cy="75.22" r="24.28"/><circle class="cls-67" cx="322.26" cy="77.54" r="24.28"/><circle class="cls-68" cx="320.85" cy="79.85" r="24.28"/><circle class="cls-69" cx="319.44" cy="82.17" r="24.28"/><circle class="cls-70" cx="318.03" cy="84.48" r="24.28"/><circle class="cls-71" cx="316.62" cy="86.8" r="24.28"/><circle class="cls-72" cx="315.21" cy="89.11" r="24.28"/><circle class="cls-73" cx="313.79" cy="91.43" r="24.28"/><circle class="cls-74" cx="312.38" cy="93.74" r="24.28"/><circle class="cls-75" cx="310.97" cy="96.06" r="24.28"/><circle class="cls-75" cx="309.56" cy="98.38" r="24.28"/><circle class="cls-76" cx="308.15" cy="100.69" r="24.28"/><circle class="cls-77" cx="306.74" cy="103.01" r="24.28"/><circle class="cls-78" cx="305.33" cy="105.32" r="24.28"/><circle class="cls-79" cx="303.92" cy="107.64" r="24.28"/><circle class="cls-80" cx="302.51" cy="109.95" r="24.28"/><circle class="cls-81" cx="301.09" cy="112.27" r="24.28"/><circle class="cls-82" cx="299.68" cy="114.58" r="24.28"/><circle class="cls-83" cx="298.27" cy="116.9" r="24.28"/><circle class="cls-84" cx="296.86" cy="119.21" r="24.28"/><circle class="cls-85" cx="295.45" cy="121.53" r="24.28"/><circle class="cls-86" cx="294.04" cy="123.84" r="24.28"/><circle class="cls-87" cx="292.63" cy="126.16" r="24.28"/><circle class="cls-88" cx="291.22" cy="128.48" r="24.28"/><circle class="cls-89" cx="289.81" cy="130.79" r="24.28"/><circle class="cls-90" cx="288.39" cy="133.11" r="24.28"/><circle class="cls-91" cx="286.98" cy="135.42" r="24.28"/><circle class="cls-92" cx="285.57" cy="137.74" r="24.28"/><circle class="cls-93" cx="284.16" cy="140.05" r="24.28"/><circle class="cls-94" cx="282.75" cy="142.37" r="24.28"/><circle class="cls-95" cx="281.34" cy="144.68" r="24.28"/><circle class="cls-96" cx="279.93" cy="147" r="24.28"/><circle class="cls-97" cx="278.52" cy="149.31" r="24.28"/><circle class="cls-98" cx="277.11" cy="151.63" r="24.28"/><circle class="cls-99" cx="275.69" cy="153.95" r="24.28"/><circle class="cls-100" cx="274.28" cy="156.26" r="24.28"/><circle class="cls-101" cx="272.87" cy="158.58" r="24.28"/><circle class="cls-102" cx="271.46" cy="160.89" r="24.28"/><circle class="cls-103" cx="270.05" cy="163.21" r="24.28"/><circle class="cls-104" cx="268.64" cy="165.52" r="24.28"/><circle class="cls-105" cx="267.23" cy="167.84" r="24.28"/><circle class="cls-106" cx="266.45" cy="166.57" r="24.28"/><circle class="cls-107" cx="265.68" cy="165.3" r="24.28"/><circle class="cls-108" cx="264.91" cy="164.03" r="24.28"/><circle class="cls-109" cx="264.13" cy="162.76" r="24.28"/><circle class="cls-110" cx="263.36" cy="161.49" r="24.28"/><circle class="cls-111" cx="262.58" cy="160.22" r="24.28"/><circle class="cls-112" cx="261.81" cy="158.94" r="24.28"/><circle class="cls-113" cx="261.03" cy="157.67" r="24.28"/><circle class="cls-114" cx="260.26" cy="156.4" r="24.28"/><circle class="cls-115" cx="259.49" cy="155.13" r="24.28"/><circle class="cls-116" cx="258.71" cy="153.86" r="24.28"/><circle class="cls-117" cx="257.94" cy="152.59" r="24.28"/><circle class="cls-118" cx="257.16" cy="151.32" r="24.28"/><circle class="cls-119" cx="256.39" cy="150.05" r="24.28"/><circle class="cls-120" cx="255.61" cy="148.78" r="24.28"/><circle class="cls-121" cx="254.84" cy="147.51" r="24.28"/><circle class="cls-122" cx="254.07" cy="146.24" r="24.28"/><circle class="cls-123" cx="253.29" cy="144.97" r="24.28"/><circle class="cls-124" cx="252.52" cy="143.7" r="24.28"/><circle class="cls-125" cx="251.74" cy="142.43" r="24.28"/><circle class="cls-126" cx="250.97" cy="141.16" r="24.28"/><circle class="cls-127" cx="250.19" cy="139.89" r="24.28"/><circle class="cls-128" cx="249.42" cy="138.62" r="24.28"/><circle class="cls-129" cx="248.65" cy="137.35" r="24.28"/><circle class="cls-130" cx="247.87" cy="136.08" r="24.28"/><circle class="cls-131" cx="247.1" cy="134.81" r="24.28"/><circle class="cls-132" cx="246.32" cy="133.54" r="24.28"/><circle class="cls-133" cx="245.55" cy="132.27" r="24.28"/><circle class="cls-134" cx="244.77" cy="131" r="24.28"/><circle class="cls-135" cx="244" cy="129.73" r="24.28"/><circle class="cls-136" cx="243.23" cy="128.46" r="24.28"/><circle class="cls-137" cx="242.45" cy="127.18" r="24.28"/><circle class="cls-138" cx="241.68" cy="125.91" r="24.28"/><circle class="cls-139" cx="240.9" cy="124.64" r="24.28"/><circle class="cls-140" cx="240.13" cy="123.37" r="24.28"/><circle class="cls-141" cx="239.36" cy="122.1" r="24.28"/><circle class="cls-142" cx="238.58" cy="120.83" r="24.28"/><circle class="cls-143" cx="237.81" cy="119.56" r="24.28"/><circle class="cls-144" cx="237.03" cy="118.29" r="24.28"/><circle class="cls-145" cx="236.26" cy="117.02" r="24.28"/><circle class="cls-146" cx="235.48" cy="115.75" r="24.28"/><circle class="cls-147" cx="234.71" cy="114.48" r="24.28"/><circle class="cls-148" cx="233.94" cy="113.21" r="24.28"/><circle class="cls-149" cx="233.16" cy="111.94" r="24.28"/><circle class="cls-150" cx="232.39" cy="110.67" r="24.28"/><circle class="cls-151" cx="231.61" cy="109.4" r="24.28"/><circle class="cls-152" cx="230.84" cy="108.13" r="24.28"/><circle class="cls-153" cx="230.06" cy="106.86" r="24.28"/><circle class="cls-154" cx="229.29" cy="105.59" r="24.28"/><circle class="cls-155" cx="228.52" cy="104.32" r="24.28"/><circle class="cls-156" cx="227.74" cy="103.05" r="24.28"/><circle class="cls-157" cx="226.97" cy="101.78" r="24.28"/><circle class="cls-158" cx="226.19" cy="100.51" r="24.28"/><circle class="cls-159" cx="225.42" cy="99.24" r="24.28"/><circle class="cls-160" cx="224.64" cy="97.97" r="24.28"/><circle class="cls-161" cx="223.87" cy="96.7" r="24.28"/><circle class="cls-162" cx="223.1" cy="95.42" r="24.28"/><circle class="cls-163" cx="222.32" cy="94.15" r="24.28"/><circle class="cls-164" cx="221.55" cy="92.88" r="24.28"/><circle class="cls-165" cx="220.77" cy="91.61" r="24.28"/><circle class="cls-166" cx="220" cy="90.34" r="24.28"/><circle class="cls-167" cx="219.23" cy="89.07" r="24.28"/><circle class="cls-168" cx="218.45" cy="87.8" r="24.28"/><circle class="cls-169" cx="217.68" cy="86.53" r="24.28"/><circle class="cls-170" cx="216.9" cy="85.26" r="24.28"/><circle class="cls-171" cx="216.13" cy="83.99" r="24.28"/><circle class="cls-172" cx="215.35" cy="82.72" r="24.28"/><circle class="cls-173" cx="214.58" cy="81.45" r="24.28"/><circle class="cls-174" cx="213.81" cy="80.18" r="24.28"/><circle class="cls-175" cx="213.03" cy="78.91" r="24.28"/><circle class="cls-176" cx="212.26" cy="77.64" r="24.28"/><circle class="cls-177" cx="211.48" cy="76.37" r="24.28"/><circle class="cls-178" cx="210.71" cy="75.1" r="24.28"/><circle class="cls-179" cx="209.93" cy="73.83" r="24.28"/><circle class="cls-180" cx="209.16" cy="72.56" r="24.28"/><circle class="cls-181" cx="208.39" cy="71.29" r="24.28"/><circle class="cls-182" cx="207.61" cy="70.02" r="24.28"/><circle class="cls-183" cx="206.84" cy="68.75" r="24.28"/><circle class="cls-184" cx="206.06" cy="67.48" r="24.28"/><circle class="cls-185" cx="205.29" cy="66.21" r="24.28"/><circle class="cls-186" cx="204.51" cy="64.94" r="24.28"/><circle class="cls-187" cx="203.74" cy="63.66" r="24.28"/><circle class="cls-188" cx="202.97" cy="62.39" r="24.28"/><circle class="cls-189" cx="202.19" cy="61.12" r="24.28"/><circle class="cls-190" cx="201.42" cy="59.85" r="24.28"/><circle class="cls-191" cx="200.64" cy="58.58" r="24.28"/><circle class="cls-192" cx="199.87" cy="57.31" r="24.28"/><circle class="cls-193" cx="199.09" cy="56.04" r="24.28"/><circle class="cls-194" cx="198.32" cy="54.77" r="24.28"/><circle class="cls-195" cx="197.55" cy="53.5" r="24.28"/><circle class="cls-196" cx="196.77" cy="52.23" r="24.28"/><circle class="cls-197" cx="196" cy="50.96" r="24.28"/><circle class="cls-198" cx="195.22" cy="49.69" r="24.28"/><circle class="cls-199" cx="194.45" cy="48.42" r="24.28"/><circle class="cls-200" cx="193.68" cy="47.15" r="24.28"/><circle class="cls-201" cx="192.9" cy="45.88" r="24.28"/><circle class="cls-202" cx="192.13" cy="44.61" r="24.28"/><circle class="cls-203" cx="191.35" cy="43.34" r="24.28"/><circle class="cls-204" cx="190.58" cy="42.07" r="24.28"/><circle class="cls-205" cx="189.8" cy="40.8" r="24.28"/><circle class="cls-206" cx="189.03" cy="39.53" r="24.28"/><circle class="cls-207" cx="188.26" cy="38.26" r="24.28"/><circle class="cls-208" cx="187.48" cy="36.99" r="24.28"/><circle class="cls-209" cx="186.71" cy="35.72" r="24.28"/><circle class="cls-210" cx="185.93" cy="34.45" r="24.28"/><circle class="cls-211" cx="185.16" cy="33.18" r="24.28"/><circle class="cls-212" cx="184.38" cy="31.91" r="24.28"/><circle class="cls-213" cx="183.61" cy="30.63" r="24.28"/><circle class="cls-214" cx="182.84" cy="29.36" r="24.28"/><circle class="cls-215" cx="182.06" cy="28.09" r="24.28"/><circle class="cls-216" cx="181.29" cy="26.82" r="24.28"/><circle class="cls-217" cx="180.51" cy="25.55" r="24.28"/><circle class="cls-218" cx="179.74" cy="24.28" r="24.28"/></g></svg>